<svg width="200" height="200" viewBox="0 0 200 200" fill="none" xmlns="http://www.w3.org/2000/svg">
<g clip-path="url(#clip0_758_14)">
<mask id="mask0_758_14" style="mask-type:luminance" maskUnits="userSpaceOnUse" x="0" y="0" width="200" height="200">
<path d="M164 0H36C16.1177 0 0 16.1177 0 36V164C0 183.882 16.1177 200 36 200H164C183.882 200 200 183.882 200 164V36C200 16.1177 183.882 0 164 0Z" fill="white"/>
</mask>
<g mask="url(#mask0_758_14)">
<path d="M200 0H0V200H200V0Z" fill="white"/>
<path d="M99.5 138C122.42 138 141 119.42 141 96.5C141 73.5802 122.42 55 99.5 55C76.5802 55 58 73.5802 58 96.5C58 119.42 76.5802 138 99.5 138Z" fill="#9FE9E9"/>
<path d="M33.0744 173.533L33.7393 173.423C40.1119 172.259 48.0276 169.392 57.2277 164.865C75.5599 155.86 97.5137 141.15 119.125 123.409C151.399 96.8583 184.917 61.1831 186.908 41.2994C187.42 36.0687 185.7 32.7307 184.179 30.8466C179.952 25.6342 172.127 24.6362 160.998 27.8039C152.913 30.1282 142.678 34.7506 131.344 41.1919C129.907 42.0082 129.423 43.8406 130.25 45.2706L133.265 50.4796C134.098 51.9191 135.943 52.4036 137.389 51.5804C161.045 38.1054 171.705 37.4664 174.335 38.2279C174.719 38.3392 174.981 38.6621 175.016 39.0607C175.218 41.3372 173.483 49.0264 161.449 64.5157C149.598 79.7724 131.84 97.4122 111.5 114.106C91.1284 130.842 70.4197 144.813 53.1283 153.456C35.7588 162.173 27.8844 162.384 25.6353 161.771C25.2204 161.657 24.9345 161.313 24.9061 160.884C24.717 158.025 27.6169 147.432 45.9938 126.387C47.0786 125.145 46.9817 123.259 45.7593 122.152L41.3006 118.114C40.0683 116.997 38.1612 117.096 37.066 118.347C28.265 128.4 21.5691 137.714 17.591 145.359C12.1353 155.864 11.542 163.853 15.8114 169.096C19.2402 173.373 25.0582 174.854 33.0744 173.533Z" fill="#4874FF"/>
<path d="M100 164C135.824 164 165 134.824 165 99C165 63.1762 135.824 34 100 34C64.1762 34 35 63.1762 35 99C35 134.824 64.1762 164 100 164ZM100 45.8182C129.324 45.8182 153.182 69.6762 153.182 99C153.182 128.324 129.324 152.182 100 152.182C70.6762 152.182 46.8182 128.324 46.8182 99C46.8182 69.6762 70.6762 45.8182 100 45.8182Z" fill="#4874FF"/>
<path d="M26.5 55C32.299 55 37 50.299 37 44.5C37 38.701 32.299 34 26.5 34C20.701 34 16 38.701 16 44.5C16 50.299 20.701 55 26.5 55Z" fill="#4874FF"/>
<path d="M164.5 164C168.642 164 172 160.642 172 156.5C172 152.358 168.642 149 164.5 149C160.358 149 157 152.358 157 156.5C157 160.642 160.358 164 164.5 164Z" fill="#4874FF"/>
</g>
</g>
<defs>
<clipPath id="clip0_758_14">
<rect width="200" height="200" fill="white"/>
</clipPath>
</defs>
</svg>
