<svg width="160" height="160" viewBox="0 0 160 160" fill="none" xmlns="http://www.w3.org/2000/svg">
    <path fill-rule="evenodd" clip-rule="evenodd" d="M80 150C118.66 150 150 118.66 150 80C150 41.3401 118.66 10 80 10C41.3401 10 10 41.3401 10 80C10 83.9012 10.3191 87.7278 10.9327 91.4552C12.2624 62.1918 36.4082 38.875 66 38.875C96.4447 38.875 121.125 63.5553 121.125 94C121.125 123.592 97.8082 147.738 68.5448 149.067C72.2722 149.681 76.0988 150 80 150Z" fill="url(#paint0_linear_903_35)" fill-opacity="0.8"/>
    <path fill-rule="evenodd" clip-rule="evenodd" d="M65.5625 145.625C93.8326 145.625 116.75 122.708 116.75 94.4375C116.75 66.1674 93.8326 43.25 65.5625 43.25C37.2924 43.25 14.375 66.1674 14.375 94.4375C14.375 101.547 15.8246 108.319 18.4443 114.472C18.0706 112.518 17.875 110.501 17.875 108.438C17.875 90.7989 32.1739 76.5 49.8125 76.5C67.4511 76.5 81.75 90.7989 81.75 108.438C81.75 126.076 67.4511 140.375 49.8125 140.375C46.4529 140.375 43.2145 139.856 40.173 138.895C47.6556 143.177 56.3232 145.625 65.5625 145.625Z" fill="url(#paint1_linear_903_35)" fill-opacity="0.8"/>
    <defs>
        <linearGradient id="paint0_linear_903_35" x1="153.66" y1="5.88235" x2="7.2549" y2="153.66" gradientUnits="userSpaceOnUse">
            <stop stop-color="#4D4D4D"/>
            <stop offset="1"/>
        </linearGradient>
        <linearGradient id="paint1_linear_903_35" x1="153.66" y1="5.88235" x2="7.2549" y2="153.66" gradientUnits="userSpaceOnUse">
            <stop stop-color="#4D4D4D"/>
            <stop offset="1"/>
        </linearGradient>
    </defs>
</svg>
