<svg width="273" height="83" viewBox="0 0 273 83" fill="none" xmlns="http://www.w3.org/2000/svg">
<path fill-rule="evenodd" clip-rule="evenodd" d="M40 80C62.0914 80 80 62.0914 80 40C80 17.9086 62.0914 0 40 0C17.9086 0 0 17.9086 0 40C0 42.2292 0.182358 44.4159 0.532971 46.5458C1.29281 29.8239 15.0904 16.5 32 16.5C49.397 16.5 63.5 30.603 63.5 48C63.5 64.9096 50.1761 78.7072 33.4542 79.467C35.5841 79.8176 37.7708 80 40 80Z" fill="url(#paint0_linear_912_2)" fill-opacity="0.8"/>
<path fill-rule="evenodd" clip-rule="evenodd" d="M31.75 77.5C47.9043 77.5 61 64.4043 61 48.25C61 32.0957 47.9043 19 31.75 19C15.5957 19 2.5 32.0957 2.5 48.25C2.5 52.3128 3.32833 56.1822 4.82533 59.6984C4.61179 58.5817 4.5 57.4289 4.5 56.25C4.5 46.1708 12.6708 38 22.75 38C32.8292 38 41 46.1708 41 56.25C41 66.3292 32.8292 74.5 22.75 74.5C20.8302 74.5 18.9797 74.2036 17.2417 73.654C21.5175 76.1012 26.4704 77.5 31.75 77.5Z" fill="url(#paint1_linear_912_2)" fill-opacity="0.8"/>
<path d="M135.5 33.6818C135.258 31.5303 134.258 29.8636 132.5 28.6818C130.742 27.4848 128.53 26.8864 125.864 26.8864C123.955 26.8864 122.303 27.1894 120.909 27.7955C119.515 28.3864 118.432 29.2045 117.659 30.25C116.902 31.2803 116.523 32.4545 116.523 33.7727C116.523 34.8788 116.78 35.8333 117.295 36.6364C117.826 37.4394 118.515 38.1136 119.364 38.6591C120.227 39.1894 121.152 39.6364 122.136 40C123.121 40.3485 124.068 40.6364 124.977 40.8636L129.523 42.0455C131.008 42.4091 132.53 42.9015 134.091 43.5227C135.652 44.1439 137.098 44.9621 138.432 45.9773C139.765 46.9924 140.841 48.25 141.659 49.75C142.492 51.25 142.909 53.0455 142.909 55.1364C142.909 57.7727 142.227 60.1136 140.864 62.1591C139.515 64.2045 137.553 65.8182 134.977 67C132.417 68.1818 129.318 68.7727 125.682 68.7727C122.197 68.7727 119.182 68.2197 116.636 67.1136C114.091 66.0076 112.098 64.4394 110.659 62.4091C109.22 60.3636 108.424 57.9394 108.273 55.1364H115.318C115.455 56.8182 116 58.2197 116.955 59.3409C117.924 60.447 119.159 61.2727 120.659 61.8182C122.174 62.3485 123.833 62.6136 125.636 62.6136C127.621 62.6136 129.386 62.303 130.932 61.6818C132.492 61.0455 133.72 60.1667 134.614 59.0455C135.508 57.9091 135.955 56.5833 135.955 55.0682C135.955 53.6894 135.561 52.5606 134.773 51.6818C134 50.803 132.947 50.0758 131.614 49.5C130.295 48.9242 128.803 48.4167 127.136 47.9773L121.636 46.4773C117.909 45.4621 114.955 43.9697 112.773 42C110.606 40.0303 109.523 37.4242 109.523 34.1818C109.523 31.5 110.25 29.1591 111.705 27.1591C113.159 25.1591 115.129 23.6061 117.614 22.5C120.098 21.3788 122.902 20.8182 126.023 20.8182C129.174 20.8182 131.955 21.3712 134.364 22.4773C136.788 23.5833 138.697 25.1061 140.091 27.0455C141.485 28.9697 142.212 31.1818 142.273 33.6818H135.5ZM165.46 68.7045C162.081 68.7045 159.172 67.9394 156.733 66.4091C154.309 64.8636 152.445 62.7348 151.142 60.0227C149.839 57.3106 149.188 54.2045 149.188 50.7045C149.188 47.1591 149.854 44.0303 151.188 41.3182C152.521 38.5909 154.4 36.4621 156.824 34.9318C159.248 33.4015 162.104 32.6364 165.392 32.6364C168.044 32.6364 170.407 33.1288 172.483 34.1136C174.559 35.0833 176.233 36.447 177.506 38.2045C178.794 39.9621 179.559 42.0152 179.801 44.3636H173.188C172.824 42.7273 171.991 41.3182 170.688 40.1364C169.4 38.9545 167.672 38.3636 165.506 38.3636C163.612 38.3636 161.953 38.8636 160.528 39.8636C159.119 40.8485 158.021 42.2576 157.233 44.0909C156.445 45.9091 156.051 48.0606 156.051 50.5455C156.051 53.0909 156.438 55.2879 157.21 57.1364C157.983 58.9848 159.074 60.4167 160.483 61.4318C161.907 62.447 163.581 62.9545 165.506 62.9545C166.794 62.9545 167.96 62.7197 169.006 62.25C170.066 61.7652 170.953 61.0758 171.665 60.1818C172.392 59.2879 172.9 58.2121 173.188 56.9545H179.801C179.559 59.2121 178.824 61.2273 177.597 63C176.369 64.7727 174.725 66.1667 172.665 67.1818C170.619 68.197 168.218 68.7045 165.46 68.7045ZM197.227 68.7727C195.015 68.7727 193.015 68.3636 191.227 67.5455C189.439 66.7121 188.023 65.5076 186.977 63.9318C185.947 62.3561 185.432 60.4242 185.432 58.1364C185.432 56.1667 185.811 54.5455 186.568 53.2727C187.326 52 188.348 50.9924 189.636 50.25C190.924 49.5076 192.364 48.947 193.955 48.5682C195.545 48.1894 197.167 47.9015 198.818 47.7045C200.909 47.4621 202.606 47.2652 203.909 47.1136C205.212 46.947 206.159 46.6818 206.75 46.3182C207.341 45.9545 207.636 45.3636 207.636 44.5455V44.3864C207.636 42.4015 207.076 40.8636 205.955 39.7727C204.848 38.6818 203.197 38.1364 201 38.1364C198.712 38.1364 196.909 38.6439 195.591 39.6591C194.288 40.6591 193.386 41.7727 192.886 43L186.5 41.5455C187.258 39.4242 188.364 37.7121 189.818 36.4091C191.288 35.0909 192.977 34.1364 194.886 33.5455C196.795 32.9394 198.803 32.6364 200.909 32.6364C202.303 32.6364 203.78 32.803 205.341 33.1364C206.917 33.4545 208.386 34.0455 209.75 34.9091C211.129 35.7727 212.258 37.0076 213.136 38.6136C214.015 40.2045 214.455 42.2727 214.455 44.8182V68H207.818V63.2273H207.545C207.106 64.1061 206.447 64.9697 205.568 65.8182C204.689 66.6667 203.561 67.3712 202.182 67.9318C200.803 68.4924 199.152 68.7727 197.227 68.7727ZM198.705 63.3182C200.583 63.3182 202.189 62.947 203.523 62.2045C204.871 61.4621 205.894 60.4924 206.591 59.2955C207.303 58.0833 207.659 56.7879 207.659 55.4091V50.9091C207.417 51.1515 206.947 51.3788 206.25 51.5909C205.568 51.7879 204.788 51.9621 203.909 52.1136C203.03 52.25 202.174 52.3788 201.341 52.5C200.508 52.6061 199.811 52.697 199.25 52.7727C197.932 52.9394 196.727 53.2197 195.636 53.6136C194.561 54.0076 193.697 54.5758 193.045 55.3182C192.409 56.0455 192.091 57.0152 192.091 58.2273C192.091 59.9091 192.712 61.1818 193.955 62.0455C195.197 62.8939 196.78 63.3182 198.705 63.3182ZM230.301 21.4545V68H223.506V21.4545H230.301ZM254.489 68.7045C251.049 68.7045 248.087 67.9697 245.602 66.5C243.133 65.0152 241.223 62.9318 239.875 60.25C238.542 57.553 237.875 54.3939 237.875 50.7727C237.875 47.197 238.542 44.0455 239.875 41.3182C241.223 38.5909 243.102 36.4621 245.511 34.9318C247.936 33.4015 250.769 32.6364 254.011 32.6364C255.981 32.6364 257.89 32.9621 259.739 33.6136C261.587 34.2652 263.246 35.2879 264.716 36.6818C266.186 38.0758 267.345 39.8864 268.193 42.1136C269.042 44.3258 269.466 47.0152 269.466 50.1818V52.5909H241.716V47.5H262.807C262.807 45.7121 262.443 44.1288 261.716 42.75C260.989 41.3561 259.966 40.2576 258.648 39.4545C257.345 38.6515 255.814 38.25 254.057 38.25C252.148 38.25 250.481 38.7197 249.057 39.6591C247.648 40.5833 246.557 41.7955 245.784 43.2955C245.027 44.7803 244.648 46.3939 244.648 48.1364V52.1136C244.648 54.447 245.057 56.4318 245.875 58.0682C246.708 59.7045 247.867 60.9545 249.352 61.8182C250.837 62.6667 252.572 63.0909 254.557 63.0909C255.845 63.0909 257.019 62.9091 258.08 62.5455C259.14 62.1667 260.057 61.6061 260.83 60.8636C261.602 60.1212 262.193 59.2045 262.602 58.1136L269.034 59.2727C268.519 61.1667 267.595 62.8258 266.261 64.25C264.943 65.6591 263.284 66.7576 261.284 67.5455C259.299 68.3182 257.034 68.7045 254.489 68.7045Z" fill="url(#paint2_linear_912_2)"/>
<defs>
<linearGradient id="paint0_linear_912_2" x1="82.0915" y1="-2.35294" x2="-1.56863" y2="82.0915" gradientUnits="userSpaceOnUse">
<stop stop-color="#4D4D4D"/>
<stop offset="1"/>
</linearGradient>
<linearGradient id="paint1_linear_912_2" x1="82.0915" y1="-2.35294" x2="-1.56863" y2="82.0915" gradientUnits="userSpaceOnUse">
<stop stop-color="#4D4D4D"/>
<stop offset="1"/>
</linearGradient>
<linearGradient id="paint2_linear_912_2" x1="108.5" y1="79.5" x2="272.696" y2="10.2788" gradientUnits="userSpaceOnUse">
<stop stop-color="#464646"/>
<stop offset="1" stop-color="#626262" stop-opacity="0.8"/>
</linearGradient>
</defs>
</svg>
